<svg xmlns="http://www.w3.org/2000/svg" xmlns:xlink="http://www.w3.org/1999/xlink" version="1.1" id="Layer_1" x="0px" y="0px" enable-background="new 0 0 1024 1024" xml:space="preserve" viewBox="226.45 291.22 534.73 429.9">
<path fill="#ffffff" opacity="1.000000" stroke="none" d=" M312.892700,649.755493   C310.605316,655.871033 308.558289,661.671570 306.343903,667.407471   C304.334198,672.613281 300.745697,674.507690 296.257904,672.963135   C292.057007,671.517456 290.681885,668.056702 292.423218,662.669617   C298.789429,642.974304 307.643585,624.313171 316.364258,605.605652   C342.568146,549.393250 372.625671,495.242065 404.229584,441.929840   C425.551422,405.962372 447.833130,370.601288 471.812866,336.330048   C472.537476,335.294434 473.700897,334.409821 473.517792,332.606628   C467.826141,332.510193 462.444031,334.307373 457.059174,335.560120   C416.402924,345.018524 376.115143,355.896393 336.631744,369.454926   C311.305420,378.151947 285.921844,386.857513 261.959351,399.069305   C256.603058,401.798950 251.352295,404.718811 246.703430,408.532349   C241.830994,412.529297 241.238953,415.447601 243.525269,421.298492   C245.402908,426.103546 243.790222,428.745392 238.616959,429.338959   C231.983658,430.100037 227.173096,425.647125 226.577789,419.135712   C225.328018,405.465790 233.739517,397.955414 243.774124,391.630981   C259.230103,381.889557 276.444275,375.948578 293.393982,369.490051   C351.449066,347.368622 411.073395,330.578522 471.543610,316.514191   C506.813293,308.311066 542.429443,302.165558 578.200745,296.847382   C598.069641,293.893433 618.088684,292.146515 638.192993,291.461609   C660.867615,290.689117 683.402466,291.556824 705.357788,297.768250   C721.463867,302.324829 736.007935,309.857300 744.081177,325.436920   C753.585571,343.778046 750.722595,362.007233 740.906738,379.281769   C729.398682,399.534393 713.454102,416.069885 695.467468,430.647125   C677.410339,445.281494 658.095459,457.932404 636.531799,466.928864   C634.158813,467.918915 631.285645,467.962738 628.725769,470.945587   C634.290710,471.563660 639.231750,472.051239 644.156189,472.670929   C658.556335,474.483063 672.129761,478.305817 683.497131,488.043915   C695.405579,498.245483 700.690552,511.387970 701.319214,526.692749   C701.578674,533.007935 701.959961,533.061646 708.412781,532.245728   C723.029602,530.397461 737.612244,527.558105 752.482483,529.566895   C754.537170,529.844360 756.426819,530.368286 757.945374,531.746277   C759.982422,533.594666 761.775879,535.938538 760.998535,538.707336   C760.158447,541.699646 757.116150,541.341492 754.666443,541.355713   C738.837769,541.447815 723.183167,543.449280 707.513489,545.411438   C701.970947,546.105530 698.750427,548.424072 696.962463,554.077148   C690.076355,575.849243 678.070801,594.827942 663.275208,611.996155   C644.371826,633.930908 622.729614,652.878479 598.941162,669.403931   C571.823792,688.242065 542.614075,703.033936 511.458496,713.755859   C495.715607,719.173584 479.314880,722.880188 462.480164,720.261536   C443.801941,717.356018 435.131531,707.235596 439.807678,688.177612   C443.451080,673.328674 452.052979,660.996277 462.222626,649.732483   C483.273834,626.416321 509.046326,609.365540 536.013611,593.871948   C574.351746,571.845459 615.723633,557.093811 657.494080,543.345337   C665.683655,540.649902 674.156128,538.775940 682.561218,536.789978   C686.577820,535.840881 687.831238,533.757202 687.633179,529.706848   C686.327820,503.011322 669.519287,490.570953 647.506897,487.179688   C621.480774,483.170074 596.181641,485.201874 571.371460,493.921173   C567.377686,495.324799 563.365295,495.748627 559.128357,494.548676   C555.062805,493.397369 554.915405,491.129791 556.921692,488.280853   C559.772583,484.232544 564.197815,482.042999 568.265808,479.487854   C593.249939,463.794891 616.008057,445.437042 634.851440,422.626404   C642.483887,413.386993 649.319153,403.461395 651.763794,391.288116   C653.122803,384.520691 650.978760,379.742004 645.130127,376.182800   C636.421692,370.883148 626.976929,371.301178 617.547424,372.817596   C594.833313,376.470490 574.509827,386.436035 554.631042,397.397827   C532.230713,409.750092 511.418488,424.355042 492.607086,441.746857   C485.237396,448.560394 478.568481,456.002045 473.008301,464.348572   C469.061981,470.272614 466.652039,476.777527 468.216064,484.092255   C469.041809,487.954193 471.285980,490.659973 475.267151,491.718201   C477.468079,492.303223 479.604919,493.241730 479.151855,496.024231   C478.688263,498.871460 476.581451,500.060242 473.805939,500.351929   C464.419891,501.338470 456.841919,494.840759 455.605225,485.142700   C454.367920,475.439697 456.773010,466.729980 461.782471,458.538879   C471.218536,443.109711 484.137207,430.857147 497.818329,419.369507   C528.016479,394.012939 561.873413,375.137085 599.457581,363.164032   C615.721558,357.982880 632.267212,355.972565 648.829773,362.152954   C662.437683,367.230835 668.959778,379.566345 665.544495,393.747467   C661.292358,411.403137 651.707214,426.027039 639.408386,439.062531   C631.411743,447.538086 623.405273,456.004303 614.433044,463.821777   C615.523865,463.490356 616.681274,463.297058 617.695740,462.807587   C651.812927,446.347321 683.888306,426.933685 709.545410,398.436829   C718.380493,388.623840 725.905518,377.874969 731.501953,365.813354   C740.302673,346.845581 734.782837,328.419678 716.923523,317.474792   C706.727722,311.226410 695.310974,308.953094 683.759521,307.487427   C669.738708,305.708496 655.602722,304.662933 641.469360,305.467346   C628.213867,306.221741 614.998413,307.679535 601.765137,308.825470   C577.426208,310.933136 553.482849,315.757843 529.380371,319.471130   C519.212097,321.037628 509.175629,323.453857 499.069550,325.434570   C496.633575,325.911987 495.608978,327.816132 494.379517,329.593475   C461.480835,377.152466 430.364136,425.833588 401.462860,475.939423   C371.321594,528.194946 342.804932,581.271790 318.515106,636.540283   C316.640289,640.806091 314.875885,645.120483 312.892700,649.755493  M669.947571,579.484802   C675.432251,570.680969 680.249268,561.574219 683.454102,551.461731   C680.826721,551.195007 679.105286,551.807251 677.329529,552.251892   C633.725464,563.168823 592.119080,579.376221 552.335693,600.168213   C522.701477,615.655823 494.854248,633.799316 471.955505,658.614136   C463.306763,667.986511 455.866638,678.155212 452.841187,690.888977   C450.827301,699.365234 453.774780,705.107361 461.571198,707.196716   C464.731628,708.043640 467.993073,708.788574 471.387970,708.572388   C482.697449,707.852051 493.801300,706.072815 504.559235,702.427856   C541.793884,689.812256 575.814453,671.208923 606.831482,647.129028   C631.292664,628.138794 653.481567,606.963196 669.947571,579.484802  z"/>
<path fill="#ffffff" opacity="1.000000" stroke="none" d=" M526.921509,502.970703   C545.838013,472.565765 563.425903,441.764587 583.188416,412.312317   C585.078064,409.496216 587.195312,406.977081 590.341736,405.574982   C593.021118,404.381012 595.950134,403.683563 598.241089,406.025726   C600.444580,408.278442 599.578491,411.002686 598.159363,413.415771   C594.110291,420.300171 590.069336,427.190979 585.898499,434.001709   C548.697754,494.748505 510.925354,555.157166 477.041046,617.865784   C473.007599,625.330322 469.197357,632.919312 465.446564,640.530945   C463.523376,644.433594 460.751221,645.767944 456.533051,644.748840   C451.837952,643.614563 452.453247,640.000244 452.820312,636.782349   C453.057007,634.707764 454.066681,632.661499 455.003021,630.735352   C473.655212,592.363892 495.568207,555.816956 517.436157,519.244446   C520.595825,513.960083 523.645630,508.610016 526.921509,502.970703  z"/>
</svg>